<svg width="1326" height="316" viewBox="0 0 1326 316" fill="none" xmlns="http://www.w3.org/2000/svg">
<g clip-path="url(#clip0_72_2)">
<path d="M356.494 36.864V20.602H459.602V36.864L429.846 40.324C429.615 54.6253 429.385 69.042 429.154 83.574C429.154 98.106 429.154 112.869 429.154 127.862V144.47L512.886 41.362L489.012 36.864V20.602H568.938V36.864L535.722 41.362L483.822 103.642L552.676 230.97L576.896 233.738V250H482.784V233.738L505.274 230.97L456.142 136.512L429.154 168.69C429.154 178.378 429.154 188.412 429.154 198.792C429.385 209.172 429.615 219.783 429.846 230.624L457.526 233.738V250H356.494V233.738L385.558 230.624C386.019 216.323 386.25 201.791 386.25 187.028C386.25 172.265 386.25 157.503 386.25 142.74V127.862C386.25 113.33 386.25 98.798 386.25 84.266C386.25 69.5033 386.019 54.7407 385.558 39.978L356.494 36.864ZM685.689 65.236L653.857 161.078H717.175L685.689 65.236ZM584.311 250V233.738L612.683 229.586L684.997 19.218H713.369L785.683 231.316L809.211 234.084V250H709.217V234.084L739.665 230.278L723.057 179.07H647.629L631.021 229.24L661.123 233.738V250H584.311ZM965.286 36.864V20.602H1052.48V36.864L1023.07 41.362V251.384H1002.65L872.212 72.156V228.894L910.272 233.738V250H823.08V233.738L852.49 229.586V44.822L848.338 39.286L824.118 36.864V20.602H889.512L1003.35 176.994V41.362L965.286 36.864ZM1077.23 36.864V20.602H1185.18V36.864L1156.12 39.978C1155.89 54.0487 1155.66 68.35 1155.43 82.882C1155.43 97.1833 1155.43 111.6 1155.43 126.132V171.458C1155.43 193.602 1154.73 211.94 1153.35 226.472C1151.97 240.773 1149.43 252.537 1145.74 261.764C1142.05 271.221 1136.63 279.525 1129.48 286.676C1115.18 300.977 1097.64 308.128 1076.88 308.128C1069.04 308.128 1061.89 306.629 1055.43 303.63C1048.74 300.862 1044.01 295.903 1041.25 288.752C1041.94 281.601 1044.59 276.296 1049.2 272.836C1053.59 269.376 1059.01 267.646 1065.47 267.646C1070.77 267.646 1075.62 268.799 1080 271.106C1084.38 273.413 1089.11 277.103 1094.18 282.178L1101.8 290.136C1105.95 285.061 1108.72 278.718 1110.1 271.106C1111.72 263.494 1112.52 254.037 1112.52 242.734C1112.52 236.045 1112.41 227.856 1112.18 218.168C1112.18 208.249 1111.95 195.678 1111.48 180.454C1111.25 164.999 1111.02 145.969 1110.79 123.364C1110.56 100.528 1110.22 72.848 1109.75 40.324L1077.23 36.864ZM1207.98 36.864V20.602H1312.12V36.864L1283.06 39.978C1282.83 54.2793 1282.6 68.8113 1282.37 83.574C1282.37 98.106 1282.37 112.869 1282.37 127.862V142.74C1282.37 157.272 1282.37 171.919 1282.37 186.682C1282.6 201.214 1282.83 215.861 1283.06 230.624L1312.12 233.738V250H1207.98V233.738L1237.04 230.624C1237.5 216.323 1237.73 201.791 1237.73 187.028C1237.73 172.265 1237.73 157.503 1237.73 142.74V127.862C1237.73 113.33 1237.73 98.798 1237.73 84.266C1237.73 69.5033 1237.5 54.7407 1237.04 39.978L1207.98 36.864Z" fill="white"/>
<mask id="mask0_72_2" style="mask-type:alpha" maskUnits="userSpaceOnUse" x="7" y="6" width="304" height="304">
<rect x="7" y="6" width="304" height="304" fill="white"/>
</mask>
<g mask="url(#mask0_72_2)">
<path d="M7 236.048H311V310L235.809 236.048L160.617 156L83.8085 236.048L7 310V236.048Z" fill="white"/>
<path d="M7 95C56.1533 95 96 55.1533 96 6H222C222 55.1533 261.847 95 311 95V310V238C239.253 128.491 78.7473 128.491 7 238V310V95Z" fill="white"/>
</g>
</g>
<defs>
<clipPath id="clip0_72_2">
<rect width="1326" height="316" fill="white"/>
</clipPath>
</defs>
</svg>
